<svg xmlns="http://www.w3.org/2000/svg" viewBox="0 0 653.7 154.7">
  <path d="M73.32,130.62c24.45,0,39.45-16.18,39.45-39.06v-28.41c0-5.3-2.84-8.53-7.5-8.53s-7.57,3.24-7.57,8.53v27.01c0,15.15-8.85,25.82-24.38,25.82s-24.32-10.67-24.32-25.82v-45.58c0-5.3-2.9-8.53-7.56-8.53s-7.57,3.24-7.57,8.53v46.98c0,22.88,15,39.06,39.44,39.06Z" fill="#00d9ff"/>
  <path d="M104.86,24.53c-24.45,0-39.45,16.18-39.45,39.06v28.41c0,5.3,2.84,8.53,7.5,8.53s7.57-3.24,7.57-8.53v-27.01c0-15.15,8.85-25.82,24.38-25.82s24.32,10.67,24.32,25.82v45.58c0,5.3,2.9,8.53,7.56,8.53s7.57-3.24,7.57-8.53v-46.98c0-22.88-15-39.06-39.44-39.06Z" fill="#00d9ff"/>
  <path d="M191.45,112.01c-4.41,0-7.85-1.06-10.94-4.5-2.91-3.26-3.35-6.44-3.35-10.5v-49.24c0-2.82,1.24-4.41,4.41-4.41s4.41,1.59,4.41,4.41v49.24c0,4.94,1.5,6.18,5.47,6.18h15c3.97,0,5.47-1.24,5.47-6.18v-49.24c0-2.82,1.24-4.41,4.41-4.41s4.41,1.59,4.41,4.41v49.24c0,4.06-.44,7.24-3.35,10.5-3.09,3.44-6.53,4.5-10.94,4.5h-15Z" fill="#231f20"/>
  <path d="M276.86,47.86c0-2.82,1.24-4.41,4.41-4.41s4.41,1.59,4.41,4.41v64.24h-11.65l-23.03-52.95v-.09h-.18v48.53c0,2.82-1.24,4.41-4.41,4.41s-4.41-1.59-4.41-4.41V43.36h11.65l23.03,53.56h-.09.18l.09-49.06Z" fill="#231f20"/>
  <path d="M333.07,103.19h12.97c2.29,0,4.41,1.24,4.41,4.41s-2.12,4.41-4.41,4.41h-34.77c-2.29,0-4.41-1.24-4.41-4.41s2.12-4.41,4.41-4.41h12.97v-51h-12.97c-2.29,0-4.41-1.24-4.41-4.41s2.12-4.41,4.41-4.41h34.77c2.29,0,4.41,1.24,4.41,4.41s-2.12,4.41-4.41,4.41h-12.97v51Z" fill="#231f20"/>
  <path d="M380.53,107.6c0,2.82-1.24,4.41-4.41,4.41s-4.41-1.59-4.41-4.41V43.36h29.3c4.06,0,6.97.62,10.15,3.62,3.79,3.53,4.15,6.79,4.15,11.56v12c0,4.5-.35,7.68-3.62,11.29-3.44,3.88-7.06,4.24-11.82,4.24h-19.32v21.53ZM380.53,77.25h19.59c5.21,0,6.35-1.32,6.35-6.35v-12.35c0-5.03-1.15-6.35-6.35-6.35h-19.59v25.06Z" fill="#231f20"/>
  <path d="M475.74,103.19c2.29,0,4.41,1.24,4.41,4.41s-2.12,4.41-4.41,4.41h-39.18V47.77c0-2.82,1.24-4.41,4.41-4.41s4.41,1.59,4.41,4.41v55.42h30.35Z" fill="#231f20"/>
  <path d="M540.59,103.19c2.29,0,4.41,1.24,4.41,4.41s-2.12,4.41-4.41,4.41h-39.18V43.36h39.18c2.29,0,4.41,1.24,4.41,4.41s-2.12,4.41-4.41,4.41h-30.35v21.09h12.97c2.29,0,4.41,1.24,4.41,4.41s-2.12,4.41-4.41,4.41h-12.97v21.09h30.35Z" fill="#231f20"/>
  <path d="M583.03,77.69l-15.71-27c-.62-.97-1.06-1.94-1.06-3.18,0-2.29,2.12-4.15,4.32-4.15,2.91,0,3.88,2.21,5.12,4.32l12.35,21.09,12.35-21.09c1.24-2.12,2.21-4.32,5.12-4.32,2.21,0,4.32,1.85,4.32,4.15,0,1.24-.44,2.21-1.06,3.18l-15.71,27,15.71,27c.62.97,1.06,1.94,1.06,3.18,0,2.29-2.12,4.15-4.32,4.15-2.91,0-3.88-2.21-5.12-4.32l-12.35-21.09-12.35,21.09c-1.24,2.12-2.21,4.32-5.12,4.32-2.21,0-4.32-1.85-4.32-4.15,0-1.24.44-2.21,1.06-3.18l15.71-27Z" fill="#231f20"/>
</svg>
